<svg version="1" xmlns="http://www.w3.org/2000/svg" width="933.333" height="933.333" viewBox="0 0 700.000000 700.000000"><path d="M214 55.6c-30.9 24.2-56.2 68.1-67.9 117.6-3.9 16.2-5.8 28.5-7.6 46.8-2.3 23.4-1.8 62.6.9 77.7.6 3.3 1.9 11.8 2.1 13.8.2 1.1 1.2 6 2.3 11 16.6 72 60.8 123.4 125.2 145.3 11 3.8 33 9 39.8 9.4 1.7.1 3.3.5 3.3.8.1.3.2 40.8.3 90l.1 89.5 34.8.1 34.7.2.1-3.7c0-2 .1-42.4.1-89.9 0-47.4.3-86.4.7-86.7.4-.2 5.2-1.1 10.7-2 19-3.2 42.1-9.9 57.7-16.8 3.1-1.5 5.9-2.5 6.1-2.4.1.1.9-.3 1.7-.9.8-.7 3.7-2.4 6.4-4 5.1-2.8 18.6-11.4 19.5-12.4.3-.3 3.4-2.9 7-5.7 20.7-16.4 39.6-42.3 51-69.8 9.3-22.6 16.4-52.6 18.6-79 .3-4.4.8-9.6 1-11.5.5-5.9.6-42.2 0-47-.3-2.5-.8-7.4-1.1-11-2.5-28.2-11.7-59.3-24-80.9-7.6-13.6-13.7-21.4-26.5-34.1-15-15-31.8-26.3-54-36.4-5.4-2.4-24.1-8.3-28.5-9-2.2-.3-5.1-.8-6.5-1.1-3.4-.8-29.1-.9-31.5-.2-1.1.4-3.6.9-5.5 1.2-12.9 2-29.2 8.3-39.2 15.1-12.7 8.6-23.3 21.3-27.9 33.3-5.7 14.7-5.5 8.8-5.4 168.4 0 146.6 0 146.7-2 146.7-2.8 0-15.7-5.1-23.5-9.2-23.7-12.6-44.5-35.1-57.3-61.8-7-14.6-14.1-35.8-16.3-48.8-2.6-15.2-2.9-17.6-4-28.7-1.4-13.6-.6-63.7 1.1-66.5.1-.3.6-3.2 1-6.4 1-9.4 5.2-26.8 9-38.4 7.7-23 19.6-42.1 33.3-53.5l3.9-3.3-16-20.5c-8.8-11.2-17.3-22.3-19-24.7-1.7-2.3-3.3-4.2-3.6-4.2-.3 0-2.6 1.6-5.1 3.6zm204.8 59.6c15.7 4.8 30.4 15.1 42.7 29.9 2.1 2.5 7.6 10.7 11.3 16.9 5.1 8.7 11.5 26.6 15.1 42.5 5.4 24.3 5.9 67 1.1 91.1-.6 2.8-1.3 6.4-1.6 8-1.1 5.9-4.3 17.1-7.3 25.2-15 40.4-42.6 69.2-80.1 83.9-5.9 2.3-15.5 5.3-17.1 5.3-.4 0-.7-65.5-.7-145.6l.1-145.5 2.3-4.7c2.4-4.9 6.4-8 11.8-9.2 4.7-1.2 14.9-.1 22.4 2.2z"/></svg>