<?xml version="1.0" encoding="utf-8"?>
<!-- Generator: Adobe Illustrator 18.1.0, SVG Export Plug-In . SVG Version: 6.00 Build 0)  -->
<svg version="1.1" id="Layer_1" xmlns="http://www.w3.org/2000/svg" xmlns:xlink="http://www.w3.org/1999/xlink" x="0px" y="0px"
	 viewBox="0 0 100 100" enable-background="new 0 0 100 100" xml:space="preserve">
<g>
	<path fill-rule="evenodd" clip-rule="evenodd" fill="#F7F8F8" d="M58.4,56.3c-4.1,3-10,4.6-15.1,4.6c-7.1,0-13.5-2.6-18.4-7
		c-0.4-0.3,0-0.8,0.4-0.5c5.2,3.1,11.7,4.9,18.4,4.9c4.5,0,9.5-0.9,14-2.9C58.5,55,59.1,55.8,58.4,56.3z"/>
	<path fill-rule="evenodd" clip-rule="evenodd" fill="#F7F8F8" d="M60.1,54.3c-0.5-0.7-3.4-0.3-4.8-0.2c-0.4,0-0.5-0.3-0.1-0.6
		c2.3-1.6,6.2-1.2,6.6-0.6c0.4,0.6-0.1,4.4-2.3,6.2c-0.3,0.3-0.7,0.1-0.5-0.2C59.5,57.8,60.6,55,60.1,54.3z"/>
</g>
<g>
	<path fill-rule="evenodd" clip-rule="evenodd" fill="#F7F8F8" d="M55.4,42.1v-1.6c0-0.2,0.2-0.4,0.4-0.4l7.1,0
		c0.2,0,0.4,0.2,0.4,0.4v1.4c0,0.2-0.2,0.5-0.5,1l-3.7,5.3c1.4,0,2.8,0.2,4.1,0.9c0.3,0.2,0.4,0.4,0.4,0.6v1.7
		c0,0.2-0.3,0.5-0.5,0.4c-2.2-1.2-5.1-1.3-7.5,0c-0.2,0.1-0.5-0.1-0.5-0.4v-1.6c0-0.3,0-0.7,0.3-1.1l4.3-6.1l-3.7,0
		C55.6,42.5,55.4,42.3,55.4,42.1z"/>
	<path fill-rule="evenodd" clip-rule="evenodd" fill="#F7F8F8" d="M29.4,52h-2.2c-0.2,0-0.4-0.2-0.4-0.4l0-11.1
		c0-0.2,0.2-0.4,0.4-0.4l2,0c0.2,0,0.4,0.2,0.4,0.4v1.5h0c0.5-1.4,1.5-2.1,2.9-2.1c1.4,0,2.2,0.7,2.8,2.1c0.5-1.4,1.7-2.1,3-2.1
		c0.9,0,1.9,0.4,2.5,1.2c0.7,0.9,0.5,2.3,0.5,3.5l0,7c0,0.2-0.2,0.4-0.4,0.4h-2.2c-0.2,0-0.4-0.2-0.4-0.4l0-5.9c0-0.5,0-1.6-0.1-2.1
		c-0.2-0.8-0.6-1-1.3-1c-0.5,0-1.1,0.4-1.3,0.9c-0.2,0.6-0.2,1.5-0.2,2.1v5.9c0,0.2-0.2,0.4-0.4,0.4h-2.2c-0.2,0-0.4-0.2-0.4-0.4
		l0-5.9c0-1.2,0.2-3.1-1.3-3.1c-1.6,0-1.5,1.8-1.5,3.1l0,5.9C29.8,51.8,29.6,52,29.4,52z"/>
	<path fill-rule="evenodd" clip-rule="evenodd" fill="#F7F8F8" d="M69.5,39.9c3.2,0,5,2.8,5,6.3c0,3.4-1.9,6.1-5,6.1
		c-3.2,0-4.9-2.8-4.9-6.2C64.6,42.6,66.4,39.9,69.5,39.9z M69.6,42.1c-1.6,0-1.7,2.2-1.7,3.5c0,1.4,0,4.3,1.7,4.3
		c1.7,0,1.8-2.3,1.8-3.8c0-0.9,0-2.1-0.3-3C70.7,42.4,70.2,42.1,69.6,42.1z"/>
	<path fill-rule="evenodd" clip-rule="evenodd" fill="#F7F8F8" d="M78.7,52h-2.2c-0.2,0-0.4-0.2-0.4-0.4l0-11.1
		c0-0.2,0.2-0.4,0.4-0.4l2,0c0.2,0,0.3,0.1,0.4,0.3v1.7h0c0.6-1.5,1.5-2.3,3-2.3c1,0,1.9,0.4,2.5,1.3c0.6,0.9,0.6,2.4,0.6,3.5v7
		c0,0.2-0.2,0.4-0.4,0.4h-2.2c-0.2,0-0.4-0.2-0.4-0.4v-6c0-1.2,0.1-3-1.4-3c-0.5,0-1,0.4-1.3,0.9c-0.3,0.7-0.3,1.4-0.3,2.1v6
		C79.1,51.8,78.9,52,78.7,52z"/>
	<path fill-rule="evenodd" clip-rule="evenodd" fill="#F7F8F8" d="M49.8,46.7c0,0.8,0,1.6-0.4,2.3c-0.3,0.6-0.9,1-1.5,1
		c-0.8,0-1.3-0.6-1.3-1.6c0-1.8,1.7-2.2,3.2-2.2V46.7z M51.9,52c-0.1,0.1-0.4,0.1-0.5,0.1c-0.7-0.6-0.9-0.9-1.2-1.4
		c-1.2,1.2-2,1.6-3.6,1.6c-1.8,0-3.2-1.1-3.2-3.4c0-1.8,1-3,2.3-3.5c1.2-0.5,2.8-0.6,4.1-0.8v-0.3c0-0.5,0-1.1-0.3-1.6
		c-0.3-0.4-0.8-0.6-1.2-0.6c-0.8,0-1.6,0.4-1.7,1.3c0,0.2-0.2,0.4-0.4,0.4L44,43.5c-0.2,0-0.4-0.2-0.3-0.5c0.5-2.6,2.8-3.3,4.9-3.3
		c1.1,0,2.4,0.3,3.3,1.1c1.1,1,1,2.3,1,3.7V48c0,1,0.4,1.5,0.8,2c0.1,0.2,0.2,0.4,0,0.6C53.2,50.9,52.4,51.6,51.9,52L51.9,52z"/>
	<path fill-rule="evenodd" clip-rule="evenodd" fill="#F7F8F8" d="M21.3,46.7c0,0.8,0,1.6-0.4,2.3c-0.3,0.6-0.9,1-1.5,1
		c-0.8,0-1.3-0.6-1.3-1.6c0-1.8,1.7-2.2,3.2-2.2V46.7z M23.5,52c-0.1,0.1-0.4,0.1-0.5,0.1c-0.7-0.6-0.9-0.9-1.2-1.4
		c-1.2,1.2-2,1.6-3.6,1.6c-1.8,0-3.2-1.1-3.2-3.4c0-1.8,1-3,2.3-3.5c1.2-0.5,2.8-0.6,4.1-0.8v-0.3c0-0.5,0-1.1-0.3-1.6
		c-0.3-0.4-0.8-0.6-1.2-0.6c-0.8,0-1.6,0.4-1.7,1.3c0,0.2-0.2,0.4-0.4,0.4l-2.1-0.2c-0.2,0-0.4-0.2-0.3-0.5c0.5-2.6,2.8-3.3,4.9-3.3
		c1.1,0,2.4,0.3,3.3,1.1c1.1,1,1,2.3,1,3.7V48c0,1,0.4,1.5,0.8,2c0.1,0.2,0.2,0.4,0,0.6C24.7,50.9,23.9,51.6,23.5,52L23.5,52z"/>
</g>
</svg>
