<?xml version="1.0" encoding="utf-8"?>
<!-- Generator: Adobe Illustrator 18.1.0, SVG Export Plug-In . SVG Version: 6.00 Build 0)  -->
<svg version="1.1" xmlns="http://www.w3.org/2000/svg" xmlns:xlink="http://www.w3.org/1999/xlink" x="0px" y="0px"
	 viewBox="0 0 100 100" enable-background="new 0 0 100 100" xml:space="preserve">
<g id="Layer_1">
	<g id="XMLID_12_">
		<path id="XMLID_30_" fill="#FFFFFF" d="M14.9,43.9V47h7.5c-0.2,1.8-0.8,3.1-1.7,4c-1.1,1.1-2.8,2.3-5.8,2.3
			c-4.6,0-8.3-3.7-8.3-8.4s3.6-8.4,8.3-8.4c2.5,0,4.3,1,5.7,2.3l2.2-2.2c-1.9-1.8-4.4-3.2-7.9-3.2c-6.4,0-11.7,5.2-11.7,11.6
			s5.4,11.6,11.7,11.6c3.4,0,6-1.1,8.1-3.2c2.1-2.1,2.7-5,2.7-7.4c0-0.7-0.1-1.4-0.2-2H14.9z"/>
		<path id="XMLID_27_" fill="#FFFFFF" d="M35.1,41.3c-4.1,0-7.5,3.1-7.5,7.5c0,4.3,3.4,7.5,7.5,7.5s7.5-3.2,7.5-7.5
			C42.6,44.4,39.2,41.3,35.1,41.3z M35.1,53.3c-2.3,0-4.2-1.9-4.2-4.5c0-2.7,2-4.5,4.2-4.5c2.3,0,4.2,1.8,4.2,4.5
			C39.3,51.4,37.4,53.3,35.1,53.3z"/>
		<path id="XMLID_23_" fill="#FFFFFF" d="M71.8,43h-0.1c-0.7-0.9-2.1-1.7-3.9-1.7c-3.7,0-7,3.2-7,7.5c0,4.2,3.2,7.5,7,7.5
			c1.8,0,3.2-0.8,3.9-1.7h0.1v1c0,2.9-1.5,4.4-4,4.4c-2,0-3.2-1.4-3.8-2.7l-2.9,1.2c0.8,2,3,4.4,6.6,4.4c3.8,0,7.1-2.3,7.1-7.8V41.7
			h-3.1V43z M68,53.3c-2.3,0-4-1.9-4-4.5c0-2.6,1.7-4.5,4-4.5c2.2,0,4,1.9,4,4.5C72,51.4,70.3,53.3,68,53.3z"/>
		<path id="XMLID_19_" fill="#FFFFFF" d="M51.8,41.3c-4.1,0-7.5,3.1-7.5,7.5c0,4.3,3.4,7.5,7.5,7.5s7.5-3.2,7.5-7.5
			C59.3,44.4,55.9,41.3,51.8,41.3z M51.8,53.3c-2.3,0-4.2-1.9-4.2-4.5c0-2.7,2-4.5,4.2-4.5s4.2,1.8,4.2,4.5
			C56,51.4,54.1,53.3,51.8,53.3z"/>
		<path id="XMLID_17_" fill="#FFFFFF" d="M77.5,33.7h3.2v22.6h-3.2V33.7z"/>
		<path id="XMLID_13_" fill="#FFFFFF" d="M90.6,53.3c-1.7,0-2.9-0.8-3.6-2.3l10-4.1L96.7,46c-0.6-1.7-2.5-4.8-6.4-4.8
			c-3.8,0-7,3-7,7.5c0,4.2,3.2,7.5,7.4,7.5c3.4,0,5.4-2.1,6.2-3.3l-2.5-1.7C93.5,52.5,92.3,53.3,90.6,53.3L90.6,53.3z M90.4,44.1
			c1.3,0,2.5,0.7,2.8,1.6l-6.7,2.8C86.5,45.4,88.7,44.1,90.4,44.1z"/>
	</g>
</g>
<g id="svg14588">
</g>
<g id="Layer_2">
</g>
<g id="svg2985">
</g>
</svg>
