<?xml version="1.0" encoding="utf-8"?>
<!-- Generator: Adobe Illustrator 18.1.0, SVG Export Plug-In . SVG Version: 6.00 Build 0)  -->
<svg version="1.1" xmlns="http://www.w3.org/2000/svg" xmlns:xlink="http://www.w3.org/1999/xlink" x="0px" y="0px"
	 viewBox="0 0 100 100" enable-background="new 0 0 100 100" xml:space="preserve">
<g id="Layer_1">
	<path fill="#FFFFFF" d="M58.1,39.2h-5.1v22.2h15.8v-4.3H58.1L58.1,39.2z M80,52.9h4.2v3.9c-0.8,0.3-2.3,0.6-3.7,0.6
		c-4.6,0-6.2-2.3-6.2-7.1c0-4.5,1.5-7.2,6.1-7.2c2.6,0,4,0.8,5.2,2.3l3.2-2.9c-1.9-2.8-5.4-3.6-8.6-3.6c-7.2,0-11,3.9-11,11.4
		c0,7.5,3.4,11.5,10.9,11.5c3.4,0,6.8-0.9,8.7-2.2V48.8H80V52.9z"/>
</g>
<g id="svg14588">
</g>
<g id="Layer_2">
	<g>
		<g>
			<path fill="#FFFFFF" d="M28.1,33.4c-9.5,0-17.1,7.6-17.1,17.1c0,9.4,7.6,17.1,17.1,17.1c9.4,0,17.1-7.6,17.1-17.1
				C45.2,41.1,37.5,33.4,28.1,33.4z M32.2,56.7V58h-4.8V43h1.4v13.6H32.2z M38.2,60.6c-2.7,2.7-6.3,4.2-10.1,4.2
				c-3.8,0-7.4-1.5-10.1-4.2c-2.7-2.7-4.2-6.3-4.2-10.1c0-7.9,6.4-14.3,14.3-14.3c0.2,0,0.5,0,0.7,0v1.3c-0.2,0-0.5,0-0.7,0
				c-3.5,0-6.7,1.3-9.2,3.8c-2.5,2.4-3.8,5.7-3.8,9.2c0,3.5,1.4,6.7,3.8,9.2c2.4,2.5,5.7,3.8,9.2,3.8c6.9,0,12.5-5.3,12.9-12.1
				c0,0,0-0.2,0-0.2h-8.9v-1.3h9.6h0.6v0.6C42.4,54.3,40.9,57.9,38.2,60.6z M24.7,45.1c0,1.1-0.9,2-2,2s-2-0.9-2-2
				c0-1.1,0.9-2.1,2-2.1S24.7,43.9,24.7,45.1z"/>
		</g>
	</g>
</g>
</svg>
