<?xml version="1.0" encoding="utf-8"?>
<!-- Generator: Adobe Illustrator 18.1.0, SVG Export Plug-In . SVG Version: 6.00 Build 0)  -->
<svg version="1.1" xmlns="http://www.w3.org/2000/svg" xmlns:xlink="http://www.w3.org/1999/xlink" x="0px" y="0px"
	 viewBox="0 0 100 100" enable-background="new 0 0 100 100" xml:space="preserve">
<g id="Layer_1">
</g>
<g id="Layer_2">
	<g>
		<g>
			<path fill="#FFFFFF" d="M81.7,52.9c-0.1,0.7-0.4,1.2-0.9,1.6c8.2-3.7,13-7.8,12.4-11.4c-1.2-6.7-21.2-8.7-44.7-4.6
				c-10.3,1.8-19.5,4.5-26.6,7.5c0.4-0.1,0.8-0.1,1.3-0.1c1.2,0,3,0.3,3,2.2v0.6H24c0,0,0-0.4,0-0.5c0-0.5-0.3-0.8-0.8-0.8
				c-0.6,0-0.7,0.3-0.8,0.6c0,0.1,0,0.3,0,0.5c0.2,1,3.6,1.6,4,3.4c0,0.2,0.1,0.7,0,1.4c-0.2,1.5-1.5,2-3.1,2
				c-1.7,0-3.2-0.6-3.2-2.6l0-0.7h2.4v0.9c0,0.5,0.3,0.8,0.9,0.8c0.6,0,0.8-0.3,0.9-0.6c0-0.2,0.1-0.4,0-0.7c-0.5-1.1-3.6-1.7-4-3.5
				c-0.1-0.4-0.1-0.8,0-1.2c0.1-0.6,0.4-1.1,0.9-1.4c-8.5,3.8-13.6,8-12.9,11.6c1.2,6.7,21.2,8.7,44.7,4.6c10.5-1.8,19.9-4.6,27-7.6
				c-0.4,0.1-0.8,0.1-1.2,0.1c-1.6,0-3-0.6-3.1-2.2c0-0.3,0-0.4,0-0.6l0-3.7c0-0.2,0-0.4,0-0.6c0.2-1.6,1.5-2.2,3.1-2.2
				c1.6,0,2.9,0.5,3.1,2.2c0,0.3,0,0.6,0,0.6v0.3h-2.2v-0.5c0,0,0-0.2,0-0.3c0-0.2-0.2-0.6-0.9-0.6c-0.6,0-0.8,0.4-0.9,0.6
				c0,0.1,0,0.3,0,0.4v4c0,0.1,0,0.2,0,0.3c0,0.2,0.3,0.6,0.9,0.6c0.6,0,0.9-0.4,0.9-0.6c0-0.1,0-0.2,0-0.3v-1.3h-0.9v-1.3h3.1v2.4
				C81.7,52.5,81.7,52.6,81.7,52.9z M32.6,54.9l-1.2-8h0l-1.2,8h-2.4l1.6-8.8h3.9l1.6,8.8H32.6z M44.4,54.9L44.3,47h0l-1.5,7.9h-2.2
				L39.1,47h0L39,54.9h-2.2l0.2-8.8h3.6l1.1,6.7h0l1.1-6.7h3.6l0.2,8.8H44.4z M55,53.2c-0.2,1.5-1.5,2-3.1,2c-1.6,0-3.2-0.6-3.2-2.5
				l0-0.7h2.3l0,0.8c0,0.5,0.3,0.8,0.9,0.8c0.6,0,0.8-0.3,0.9-0.6c0-0.2,0.1-0.4,0-0.6c-0.4-1.1-3.5-1.6-3.9-3.4
				c-0.1-0.4-0.1-0.8,0-1.2c0.2-1.4,1.5-1.9,3.1-1.9c1.2,0,2.9,0.3,2.9,2.2v0.6h-2.2c0,0,0-0.4,0-0.5c0-0.5-0.3-0.8-0.8-0.8
				c-0.5,0-0.7,0.3-0.8,0.6c0,0.1,0,0.3,0,0.5c0.2,1,3.6,1.6,3.9,3.4C55,52,55.1,52.4,55,53.2z M63.2,53c-0.2,1.6-1.5,2.2-3.1,2.2
				c-1.6,0-2.9-0.5-3.1-2.2c0-0.1,0-0.4,0-0.6v-6.3h2.2v6.5c0,0.1,0,0.2,0,0.3c0,0.2,0.2,0.6,0.9,0.6c0.6,0,0.8-0.4,0.8-0.6
				c0-0.1,0-0.2,0-0.3v-6.5h2.2v6.3C63.3,52.6,63.3,52.9,63.2,53z M73.1,54.8H70l-2.2-7.2h0l0.1,7.2h-2.2v-8.7H69l2,6.9h0L71,46.1
				h2.2V54.8z"/>
		</g>
	</g>
</g>
</svg>
