<?xml version="1.0" encoding="utf-8"?>
<!-- Generator: Adobe Illustrator 18.1.0, SVG Export Plug-In . SVG Version: 6.00 Build 0)  -->
<svg version="1.1" xmlns="http://www.w3.org/2000/svg" xmlns:xlink="http://www.w3.org/1999/xlink" x="0px" y="0px"
	 viewBox="0 0 100 100" enable-background="new 0 0 100 100" xml:space="preserve">
<g id="Layer_1">
</g>
<g id="svg14588">
</g>
<g id="Layer_2">
</g>
<g id="svg2985">
</g>
<g id="Capa_1">
	<path fill="#E5E5E5" d="M69.2,41h19c2.5,0,4.5,2,4.5,4.5c0,2.5-2,4.5-4.5,4.5h-19v-1.8h19c1.5,0,2.8-1.2,2.8-2.8
		c0-1.5-1.2-2.8-2.8-2.8h-19V41z"/>
	<path opacity="0.3" fill="#5C5C60" enable-background="new    " d="M72.9,45.5c0,1-0.4,2-1,2.8h-2.6V50h19c2.5,0,4.5-2,4.5-4.5
		H72.9L72.9,45.5z"/>
	<path fill="#E5E5E5" d="M92.7,50h-19c-2.5,0-4.5,2-4.5,4.5c0,2.5,2,4.5,4.5,4.5h19v-1.8h-19c-1.5,0-2.8-1.2-2.8-2.8
		c0-1.5,1.2-2.8,2.8-2.8h19L92.7,50L92.7,50z"/>
	<path opacity="0.3" fill="#5C5C60" enable-background="new    " d="M89.1,54.5c0,1,0.4,2,1,2.8h2.6V59h-19c-2.5,0-4.5-2-4.5-4.5
		H89.1z"/>
	<path fill="#E5E5E5" d="M69.2,58.7h19c2.5,0,4.5,2,4.5,4.5c0,2.5-2,4.5-4.5,4.5h-19V66h19c1.5,0,2.8-1.2,2.8-2.8
		c0-1.5-1.2-2.8-2.8-2.8h-19V58.7z"/>
	<path opacity="0.3" fill="#5C5C60" enable-background="new    " d="M72.9,63.2c0,1-0.4,2-1,2.8h-2.6v1.8h19c2.5,0,4.5-2,4.5-4.5
		L72.9,63.2L72.9,63.2z"/>
	<path fill="#E5E5E5" d="M92.7,67.7h-19c-2.5,0-4.5,2-4.5,4.5c0,2.5,2,4.5,4.5,4.5h19V75h-19c-1.5,0-2.8-1.2-2.8-2.8
		c0-1.5,1.2-2.8,2.8-2.8h19L92.7,67.7L92.7,67.7z"/>
	<path opacity="0.3" fill="#5C5C60" enable-background="new    " d="M89.1,72.2c0,1,0.4,2,1,2.8h2.6v1.8h-19c-2.5,0-4.5-2-4.5-4.5
		H89.1z"/>
	<path fill="#E5E5E5" d="M92.7,32.1h-19c-2.5,0-4.5,2-4.5,4.5c0,2.5,2,4.5,4.5,4.5h19v-1.8h-19c-1.5,0-2.8-1.2-2.8-2.8
		c0-1.5,1.2-2.8,2.8-2.8h19L92.7,32.1L92.7,32.1z"/>
	<path opacity="0.3" fill="#5C5C60" enable-background="new    " d="M89.1,36.6c0,1,0.4,2,1,2.8h2.6v1.8h-19c-2.5,0-4.5-2-4.5-4.5
		H89.1z"/>
	<g>
		<g>
			<path fill="#E5E5E5" d="M22.1,26.6H10.8c-2.1,0-3.8,1.7-3.8,3.8v41.7c0,2.1,1.7,3.8,3.8,3.8h11.4c2.1,0,3.8-1.7,3.8-3.8V30.4
				C25.9,28.3,24.2,26.6,22.1,26.6z M12.7,64.5c-1,0-1.9-0.8-1.9-1.9c0-1,0.8-1.9,1.9-1.9c1,0,1.9,0.8,1.9,1.9
				C14.6,63.6,13.7,64.5,12.7,64.5z M22.1,41.7H10.8V38h11.4L22.1,41.7L22.1,41.7z M22.1,34.2H10.8v-3.8h11.4L22.1,34.2L22.1,34.2z"
				/>
			<path fill="#E5E5E5" d="M46.8,68.3v-3.8H35.4v3.8c-2.1,0-3.8,1.7-3.8,3.8h18.9C50.6,70,48.9,68.3,46.8,68.3z"/>
			<path fill="#E5E5E5" d="M63.8,19H18.3c-2.1,0-3.8,1.7-3.8,3.8h3.8h11.4h34.1v30.3H29.7v7.6h34.1c2.1,0,3.8-1.7,3.8-3.8V22.8
				C67.6,20.7,65.9,19,63.8,19z M41.1,58.8c-1,0-1.9-0.8-1.9-1.9c0-1,0.8-1.9,1.9-1.9c1,0,1.9,0.8,1.9,1.9
				C43,58,42.1,58.8,41.1,58.8z"/>
		</g>
	</g>
	<g>
		<g>
			<path fill="#E5E5E5" d="M90,33l0-6.1l-8.1,2c-0.3,0.1-0.6,0.1-1,0.1c-0.3,0-0.7,0-1-0.1L71.8,27l0,6.1c0,1.6,4.1,2.8,9.1,2.8
				C86,35.9,90,34.6,90,33z"/>
			<path fill="#E5E5E5" d="M95.7,22.4l-14-3.3c-0.3-0.1-0.5-0.1-0.8-0.1s-0.5,0-0.8,0.1l-14,3.5c-0.9,0.2-0.8,1.7,0,1.9l5.7,1.4
				l8.3,2c0.3,0.1,0.5,0.1,0.8,0.1c0.3,0,0.5,0,0.8-0.1l8.3-2.1l2.6-0.6l0,7.2c-0.3,0.3-0.5,0.8-0.5,1.3c0,1,0.7,1.8,1.5,1.8
				c0.8,0,1.5-0.8,1.4-1.8c0-0.5-0.2-1-0.5-1.3l0-7.7l1.2-0.3C96.6,24.1,96.6,22.6,95.7,22.4z"/>
		</g>
	</g>
</g>
</svg>
