<?xml version="1.0" encoding="utf-8"?>
<!-- Generator: Adobe Illustrator 18.1.0, SVG Export Plug-In . SVG Version: 6.00 Build 0)  -->
<svg version="1.1" xmlns="http://www.w3.org/2000/svg" xmlns:xlink="http://www.w3.org/1999/xlink" x="0px" y="0px"
	 viewBox="0 0 100 100" enable-background="new 0 0 100 100" xml:space="preserve">
<g id="Layer_1">
</g>
<g id="svg14588">
</g>
<g id="Layer_2">
</g>
<g id="svg2985">
</g>
<g id="Capa_1">
	<path fill="#EEEEEF" d="M73.5,62.9c0,1.5-0.8,2.8-2,3.6c0,0,16.1,0,17.6,0c1.5,0,3.5-1,3.5-3.6s-2-3.6-3.5-3.6s-17.6,0-17.6,0
		C72.7,60.1,73.5,61.4,73.5,62.9z"/>
	<path fill="#E5E5E5" d="M69.8,58.4h19.2c2.5,0,4.5,2,4.5,4.5c0,2.5-2,4.5-4.5,4.5H69.8v-1.8h19.2c1.5,0,2.8-1.2,2.8-2.8
		c0-1.5-1.2-2.8-2.8-2.8H69.8V58.4z"/>
	<path opacity="0.3" fill="#5C5C60" enable-background="new    " d="M73.5,62.9c0,1.1-0.4,2-1,2.8h-2.7v1.8h19.2
		c2.5,0,4.5-2,4.5-4.5L73.5,62.9L73.5,62.9z"/>
	<path fill="#EEEEEF" d="M89.8,72c0,1.5,0.8,2.8,2,3.6c0,0-16.1,0-17.6,0c-1.5,0-3.5-1-3.5-3.6c0-2.6,2-3.6,3.5-3.6
		c1.5,0,17.6,0,17.6,0C90.6,69.2,89.8,70.5,89.8,72z"/>
	<path fill="#E5E5E5" d="M93.5,67.5H74.3c-2.5,0-4.5,2-4.5,4.5c0,2.5,2,4.5,4.5,4.5h19.2v-1.8H74.3c-1.5,0-2.8-1.2-2.8-2.8
		c0-1.5,1.2-2.8,2.8-2.8h19.2L93.5,67.5L93.5,67.5z"/>
	<path opacity="0.3" fill="#5C5C60" enable-background="new    " d="M89.8,72c0,1.1,0.4,2,1,2.8h2.7v1.8H74.3c-2.5,0-4.5-2-4.5-4.5
		H89.8z"/>
	<g>
		<g>
			<path fill="#E5E5E5" d="M22.2,27.7H10.7c-2.1,0-3.8,1.7-3.8,3.8v42.1c0,2.1,1.7,3.8,3.8,3.8h11.5c2.1,0,3.8-1.7,3.8-3.8V31.6
				C26,29.4,24.3,27.7,22.2,27.7z M12.6,66c-1.1,0-1.9-0.9-1.9-1.9c0-1.1,0.9-1.9,1.9-1.9c1.1,0,1.9,0.9,1.9,1.9
				C14.5,65.1,13.7,66,12.6,66z M22.2,43H10.7v-3.8h11.5L22.2,43L22.2,43z M22.2,35.4H10.7v-3.8h11.5L22.2,35.4L22.2,35.4z"/>
			<path fill="#E5E5E5" d="M47.1,69.8V66H35.6v3.8c-2.1,0-3.8,1.7-3.8,3.8h19.1C50.9,71.5,49.2,69.8,47.1,69.8z"/>
			<path fill="#E5E5E5" d="M64.3,20.1H18.4c-2.1,0-3.8,1.7-3.8,3.8h3.8h11.5h34.4v30.6H29.8v7.7h34.4c2.1,0,3.8-1.7,3.8-3.8V23.9
				C68.1,21.8,66.4,20.1,64.3,20.1z M41.3,60.2c-1.1,0-1.9-0.9-1.9-1.9c0-1.1,0.9-1.9,1.9-1.9c1.1,0,1.9,0.9,1.9,1.9
				C43.2,59.4,42.4,60.2,41.3,60.2z"/>
		</g>
	</g>
</g>
</svg>
