<?xml version="1.0" encoding="utf-8"?>
<!-- Generator: Adobe Illustrator 21.1.0, SVG Export Plug-In . SVG Version: 6.00 Build 0)  -->
<svg version="1.1" id="Layer_1" xmlns="http://www.w3.org/2000/svg" xmlns:xlink="http://www.w3.org/1999/xlink" x="0px" y="0px"
	 viewBox="0 0 182.8 259.7" style="enable-background:new 0 0 182.8 259.7;" xml:space="preserve">
<style type="text/css">
	.st0{fill:#FFFFFF;}
</style>
<g id="Layer_1_1_">
</g>
<g id="Layer_3">
</g>
<g id="Layer_2">
	<g>
		<path class="st0" d="M35.3,0C35.3,0,0.4,21.3,0,86.3s39.9,97.1,87.9,97.1s95.7-22.1,94.9-101.4c-0.2-16.9-3.4-34.2-12.2-48.9
			c-8.9-14.6-24.3-25.7-40.7-30.7c-21.1-6.5-50.8,1.9-54.3,27c-2.7,19.3,29.6,8.1,29.6,8.1s-2.2-11.6,8.7-11.6s37.8,11.2,38.6,58.4
			c0.9,47.2-25.9,73.6-61.3,74.7c-35.4,1.2-60.6-28.5-60.6-77s21.3-60.7,21.3-60.7L35.3,0z"/>
		<rect x="75.3" y="30.9" class="st0" width="29.9" height="228.8"/>
	</g>
</g>
</svg>
