<?xml version="1.0" encoding="utf-8"?>
<!-- Generator: Adobe Illustrator 18.1.0, SVG Export Plug-In . SVG Version: 6.00 Build 0)  -->
<svg version="1.1" xmlns="http://www.w3.org/2000/svg" xmlns:xlink="http://www.w3.org/1999/xlink" x="0px" y="0px"
	 viewBox="0 0 100 100" enable-background="new 0 0 100 100" xml:space="preserve">
<g id="Layer_1">
</g>
<g id="svg14588">
</g>
<g id="Layer_2">
</g>
<g id="svg2985">
</g>
<g id="Capa_1">
	<g>
		<path fill="#EEEEEF" d="M73.8,61.5c0,1.5-0.8,2.7-1.9,3.5c0,0,15.5,0,16.9,0s3.4-1,3.4-3.5c0-2.5-1.9-3.5-3.4-3.5s-16.9,0-16.9,0
			C73.1,58.7,73.8,60,73.8,61.5z"/>
		<path fill="#042B45" d="M70.3,57.1h18.4c2.4,0,4.4,2,4.4,4.4c0,2.4-2,4.4-4.4,4.4H70.3v-1.7h18.4c1.5,0,2.7-1.2,2.7-2.7
			c0-1.5-1.2-2.7-2.7-2.7H70.3V57.1z"/>
		<path opacity="0.3" fill="#5C5C60" enable-background="new    " d="M73.8,61.5c0,1-0.4,1.9-1,2.7h-2.6v1.7h18.4
			c2.4,0,4.4-2,4.4-4.4H73.8L73.8,61.5z"/>
		<path fill="#EEEEEF" d="M89.5,70.2c0,1.5,0.8,2.7,1.9,3.5c0,0-15.5,0-16.9,0s-3.4-1-3.4-3.5s1.9-3.5,3.4-3.5s16.9,0,16.9,0
			C90.3,67.5,89.5,68.7,89.5,70.2z"/>
		<path fill="#042B45" d="M93.1,65.8H74.7c-2.4,0-4.4,2-4.4,4.4c0,2.4,2,4.4,4.4,4.4h18.4v-1.7H74.7c-1.5,0-2.7-1.2-2.7-2.7
			c0-1.5,1.2-2.7,2.7-2.7h18.4L93.1,65.8L93.1,65.8z"/>
		<path opacity="0.3" fill="#5C5C60" enable-background="new    " d="M89.5,70.2c0,1,0.4,1.9,1,2.7h2.6v1.7H74.7
			c-2.4,0-4.4-2-4.4-4.4H89.5z"/>
		<g>
			<g>
				<path fill="#042B45" d="M24.6,27.7h-11c-2,0-3.7,1.6-3.7,3.7v40.4c0,2,1.6,3.7,3.7,3.7h11c2,0,3.7-1.6,3.7-3.7V31.3
					C28.3,29.3,26.6,27.7,24.6,27.7z M15.4,64.4c-1,0-1.8-0.8-1.8-1.8c0-1,0.8-1.8,1.8-1.8c1,0,1.8,0.8,1.8,1.8
					C17.3,63.6,16.4,64.4,15.4,64.4z M24.6,42.4h-11v-3.7h11L24.6,42.4L24.6,42.4z M24.6,35h-11v-3.7h11L24.6,35L24.6,35z"/>
				<path fill="#042B45" d="M48.5,68.1v-3.7h-11v3.7c-2,0-3.7,1.6-3.7,3.7h18.4C52.2,69.7,50.5,68.1,48.5,68.1z"/>
				<path fill="#042B45" d="M65,20.3H20.9c-2,0-3.7,1.6-3.7,3.7h3.7h11H65v29.4H32v7.3H65c2,0,3.7-1.6,3.7-3.7V24
					C68.7,22,67.1,20.3,65,20.3z M43,58.9c-1,0-1.8-0.8-1.8-1.8c0-1,0.8-1.8,1.8-1.8c1,0,1.8,0.8,1.8,1.8C44.8,58.1,44,58.9,43,58.9
					z"/>
			</g>
		</g>
	</g>
</g>
</svg>
